<?xml version="1.0" encoding="utf-8"?>
<!-- Generator: Adobe Illustrator 23.0.3, SVG Export Plug-In . SVG Version: 6.00 Build 0)  -->
<svg version="1.1" id="Layer_1" xmlns="http://www.w3.org/2000/svg" xmlns:xlink="http://www.w3.org/1999/xlink" x="0px" y="0px"
	 viewBox="0 0 595.3 595.3" style="enable-background:new 0 0 595.3 595.3;" xml:space="preserve">
<style type="text/css">
	.st0{fill:#FAB509;}
	.st1{fill:#FFFFFF;}
	.st2{fill:none;}
	.st3{fill:#1E1E1C;}
	.st4{font-family:'ArialMT';}
	.st5{font-size:253.9567px;}
	.st6{fill:#FFFFFF;stroke:#1E1E1C;stroke-width:7;stroke-miterlimit:10;}
	.st7{fill:none;stroke:#1E1E1C;stroke-width:6;stroke-miterlimit:10;}
</style>
<rect y="0" class="st0" width="595.3" height="595.3"/>
<ellipse class="st1" cx="283.7" cy="301.1" rx="276.7" ry="279.9"/>
<polyline class="st1" points="560,310.8 588.3,542.5 342.4,573.3 "/>
<rect x="346.5" y="226.2" class="st2" width="124.4" height="229.6"/>
<text transform="matrix(1 0 0 1 346.4668 406.5185)" class="st3 st4 st5">?</text>
<g>
	<path class="st6" d="M266.7,235.9h-50.1c-0.7,0-1.3-0.6-1.3-1.3V117.4c0-0.7,0.6-1.3,1.3-1.3h50.1c0.7,0,1.3,0.6,1.3,1.3v117.1
		C268,235.3,267.5,235.9,266.7,235.9z"/>
	<path class="st6" d="M289.8,469.2h-96.4c-0.4,0-0.7-0.3-0.7-0.7V197.3c0-0.4,0.3-0.7,0.7-0.7h96.4c0.4,0,0.7,0.3,0.7,0.7v271.2
		C290.6,468.9,290.3,469.2,289.8,469.2z"/>
</g>
<line class="st7" x1="192.7" y1="283" x2="290.6" y2="282.6"/>
<line class="st7" x1="192.7" y1="391" x2="290.6" y2="390.6"/>
<line class="st7" x1="215.3" y1="133.3" x2="268" y2="133.3"/>
</svg>
