<?xml version="1.0" encoding="utf-8"?>
<!-- Generator: Adobe Illustrator 23.0.3, SVG Export Plug-In . SVG Version: 6.00 Build 0)  -->
<svg version="1.1" id="Layer_1" xmlns="http://www.w3.org/2000/svg" xmlns:xlink="http://www.w3.org/1999/xlink" x="0px" y="0px"
	 viewBox="0 0 708.66 311.81" style="enable-background:new 0 0 708.66 311.81;" xml:space="preserve">
<style type="text/css">
	.st0{fill:#FAB509;}
	.st1{fill:#FFFFFF;}
</style>
<rect class="st0" width="708.66" height="311.81"/>
<path class="st1" d="M263.59,151.17c-0.13,90.94-55.48,139.08-122.9,138.98c-69.78-0.1-118.7-54.27-118.58-134.24
	c0.12-83.89,52.34-138.69,122.9-138.59C217.14,17.43,263.7,72.77,263.59,151.17z M58.57,155.17
	c-0.08,56.45,30.42,107.06,84.12,107.14c54.1,0.08,84.75-49.66,84.83-109.63c0.08-52.53-27.28-107.45-84.12-107.53
	C86.95,45.07,58.65,97.16,58.57,155.17z"/>
<path class="st1" d="M309.32,21.85l29.59,0.04c1.25,0,2.25,1.01,2.25,2.26l-0.19,125.14l0,0c0.74,0,1.43-0.36,1.85-0.97
	c6.85-9.81,13.68-18.88,20.14-27.22l80.22-98.23c0.43-0.53,1.07-0.83,1.75-0.83l36.37,0.05c1.92,0,2.96,2.26,1.71,3.72
	l-91.52,106.95c-0.66,0.77-0.72,1.89-0.16,2.73l99.53,147.3c1.01,1.5-0.06,3.52-1.87,3.52l-34.92-0.05c-0.75,0-1.45-0.38-1.87-1
	L367.7,158.85c-0.83-1.24-2.6-1.35-3.58-0.22l-22.64,26.1c-0.36,0.41-0.55,0.93-0.55,1.47l-0.14,97.65c0,1.25-1.01,2.25-2.26,2.25
	l-29.59-0.04c-1.25,0-2.25-1.01-2.25-2.26l0.39-259.7C307.06,22.86,308.07,21.85,309.32,21.85z"/>
<path class="st1" d="M519.5,33.9c0.01-4.83,3.51-8.96,8.28-9.72c14.61-2.33,34.2-3.92,54.07-3.89c34.1,0.05,56.05,5.96,72.49,19.32
	c13.7,10.21,21.91,25.9,21.88,46.68c-0.04,25.48-16.93,47.8-44.77,57.95l0,0.78c25.08,6.31,54.45,27.13,54.39,66.33
	c-0.03,22.74-9.08,39.97-22.42,52.89c-18.45,16.83-48.25,24.62-91.37,24.56c-18.14-0.03-33.01-0.98-44.08-2.14
	c-5.02-0.53-8.83-4.77-8.82-9.82L519.5,33.9z M553.47,124.08c-0.01,5.44,4.4,9.86,9.84,9.87l21.11,0.03
	c36.06,0.05,57.26-18.73,57.3-44.21c0.05-30.97-23.46-43.15-57.95-43.21c-9.22-0.01-16.13,0.38-21.38,0.95
	c-5.01,0.54-8.81,4.75-8.82,9.79L553.47,124.08z M553.28,251.75c-0.01,5.19,4.01,9.48,9.18,9.85c5.48,0.39,12.01,0.54,19.42,0.55
	c35.28,0.05,67.83-12.83,67.89-51.25c0.05-36.06-30.89-51.01-68.13-51.06l-18.37-0.03c-5.44-0.01-9.86,4.4-9.87,9.84L553.28,251.75z
	"/>
</svg>
